<svg width="13" height="14" viewBox="0 0 13 14" fill="none" xmlns="http://www.w3.org/2000/svg">
<path d="M5.66676 3.52059L1.58342 7.60392C1.41676 7.77059 1.22231 7.85045 1.00009 7.84351C0.777869 7.83656 0.583424 7.74976 0.416758 7.58309C0.26398 7.41642 0.184119 7.22198 0.177174 6.99976C0.17023 6.77753 0.250091 6.58309 0.416758 6.41642L5.91676 0.916423C6.00009 0.833089 6.09037 0.774061 6.18759 0.739339C6.28481 0.704617 6.38898 0.687256 6.50009 0.687256C6.6112 0.687256 6.71537 0.704617 6.81259 0.739339C6.90981 0.774061 7.00009 0.833089 7.08342 0.916423L12.5834 6.41642C12.7362 6.5692 12.8126 6.76017 12.8126 6.98934C12.8126 7.21851 12.7362 7.41642 12.5834 7.58309C12.4168 7.74976 12.2188 7.83309 11.9897 7.83309C11.7605 7.83309 11.5626 7.74976 11.3959 7.58309L7.33342 3.52059V12.8331C7.33342 13.0692 7.25356 13.2671 7.09384 13.4268C6.93412 13.5866 6.7362 13.6664 6.50009 13.6664C6.26398 13.6664 6.06606 13.5866 5.90634 13.4268C5.74662 13.2671 5.66676 13.0692 5.66676 12.8331V3.52059Z" fill="white"/>
</svg>
