<svg width="13" height="14" viewBox="0 0 13 14" fill="none" xmlns="http://www.w3.org/2000/svg">
<path d="M5.66764 10.4791V1.16659C5.66764 0.930474 5.7475 0.732558 5.90723 0.572835C6.06695 0.413113 6.26487 0.333252 6.50098 0.333252C6.73709 0.333252 6.93501 0.413113 7.09473 0.572835C7.25445 0.732558 7.33431 0.930474 7.33431 1.16659V10.4791L11.4176 6.39575C11.5843 6.22909 11.7788 6.14922 12.001 6.15617C12.2232 6.16311 12.4176 6.24992 12.5843 6.41659C12.7371 6.58325 12.8169 6.7777 12.8239 6.99992C12.8308 7.22214 12.751 7.41658 12.5843 7.58325L7.08431 13.0833C7.00098 13.1666 6.9107 13.2256 6.81348 13.2603C6.71625 13.2951 6.61209 13.3124 6.50098 13.3124C6.38987 13.3124 6.2857 13.2951 6.18848 13.2603C6.09125 13.2256 6.00098 13.1666 5.91764 13.0833L0.417643 7.58325C0.264865 7.43047 0.188477 7.2395 0.188477 7.01033C0.188477 6.78117 0.264865 6.58325 0.417643 6.41659C0.58431 6.24992 0.782227 6.16658 1.01139 6.16658C1.24056 6.16658 1.43848 6.24992 1.60514 6.41659L5.66764 10.4791Z" fill="white"/>
</svg>
