<svg width="18" height="13" viewBox="0 0 18 13" fill="none" xmlns="http://www.w3.org/2000/svg">
<g clip-path="url(#clip0_75609_16139)">
<path d="M8.72166 7.64184C8.52223 7.64218 8.32796 7.58027 8.16741 7.46524L0.598922 2.03128C0.500448 1.96051 0.417275 1.87158 0.354151 1.76957C0.291027 1.66755 0.249188 1.55444 0.231023 1.43671C0.194338 1.19892 0.25631 0.956712 0.403305 0.763354C0.5503 0.569996 0.770279 0.441331 1.01485 0.405664C1.25941 0.369997 1.50854 0.430249 1.70741 0.573165L8.72166 5.60411L15.7359 0.573166C15.8344 0.502401 15.9462 0.451186 16.0651 0.422446C16.1839 0.393707 16.3074 0.388004 16.4285 0.405665C16.5496 0.423325 16.6659 0.464003 16.7708 0.525376C16.8758 0.586748 16.9672 0.667614 17.04 0.763355C17.1128 0.859096 17.1655 0.967838 17.195 1.08337C17.2246 1.19891 17.2305 1.31897 17.2123 1.43671C17.1941 1.55444 17.1523 1.66755 17.0892 1.76957C17.026 1.87158 16.9429 1.96051 16.8444 2.03128L9.27591 7.46524C9.11537 7.58027 8.92109 7.64218 8.72166 7.64184Z" fill="#02CF2F"/>
<path d="M8.72166 12.3967C8.52223 12.3971 8.32796 12.3352 8.16741 12.2201L0.598922 6.78616C0.400045 6.64324 0.267709 6.42937 0.231023 6.19159C0.194338 5.95381 0.25631 5.71159 0.403305 5.51824C0.5503 5.32488 0.770278 5.19621 1.01485 5.16055C1.25941 5.12488 1.50854 5.18513 1.70741 5.32805L8.72166 10.359L15.7359 5.32805C15.9348 5.18513 16.1839 5.12488 16.4285 5.16055C16.673 5.19621 16.893 5.32488 17.04 5.51824C17.187 5.7116 17.249 5.95381 17.2123 6.19159C17.1756 6.42937 17.0433 6.64325 16.8444 6.78616L9.27591 12.2201C9.11537 12.3352 8.92109 12.3971 8.72166 12.3967Z" fill="#02CF2F"/>
</g>
<defs>
<clipPath id="clip0_75609_16139">
<rect width="17" height="12" fill="white" transform="translate(0.22168 0.396729)"/>
</clipPath>
</defs>
</svg>
