<svg width="18" height="7" viewBox="0 0 18 7" fill="none" xmlns="http://www.w3.org/2000/svg">
<g clip-path="url(#clip0_75609_16132)">
<path d="M16.2902 6.56343H1.15319C0.906136 6.56343 0.669203 6.46458 0.494512 6.28862C0.31982 6.11266 0.22168 5.87401 0.22168 5.62516C0.22168 5.37632 0.31982 5.13766 0.494512 4.9617C0.669203 4.78574 0.906136 4.68689 1.15319 4.68689H16.2902C16.5372 4.68689 16.7742 4.78574 16.9488 4.9617C17.1235 5.13766 17.2217 5.37632 17.2217 5.62516C17.2217 5.87401 17.1235 6.11266 16.9488 6.28862C16.7742 6.46458 16.5372 6.56343 16.2902 6.56343Z" fill="#FF7A00"/>
<path d="M16.2902 2.10665H1.15319C0.906136 2.10665 0.669203 2.00779 0.494512 1.83183C0.31982 1.65587 0.22168 1.41722 0.22168 1.16837C0.22168 0.919529 0.31982 0.680876 0.494512 0.504916C0.669203 0.328956 0.906136 0.230103 1.15319 0.230103L16.2902 0.230103C16.5372 0.230103 16.7742 0.328956 16.9488 0.504916C17.1235 0.680876 17.2217 0.919529 17.2217 1.16837C17.2217 1.41722 17.1235 1.65587 16.9488 1.83183C16.7742 2.00779 16.5372 2.10665 16.2902 2.10665Z" fill="#FF7A00"/>
</g>
<defs>
<clipPath id="clip0_75609_16132">
<rect width="17" height="6.33333" fill="white" transform="translate(0.22168 0.230103)"/>
</clipPath>
</defs>
</svg>
