<svg width="45" height="16" viewBox="0 0 45 16" fill="none" xmlns="http://www.w3.org/2000/svg">
<path d="M0.409091 12.4658V0.829395H1.81818V11.2158H7.22727V12.4658H0.409091ZM12.7727 12.6476C11.9848 12.6476 11.2936 12.4601 10.6989 12.0851C10.108 11.7101 9.64583 11.1855 9.3125 10.5112C8.98295 9.83697 8.81818 9.04909 8.81818 8.14758C8.81818 7.23849 8.98295 6.44493 9.3125 5.7669C9.64583 5.08886 10.108 4.56235 10.6989 4.18735C11.2936 3.81235 11.9848 3.62485 12.7727 3.62485C13.5606 3.62485 14.25 3.81235 14.8409 4.18735C15.4356 4.56235 15.8977 5.08886 16.2273 5.7669C16.5606 6.44493 16.7273 7.23849 16.7273 8.14758C16.7273 9.04909 16.5606 9.83697 16.2273 10.5112C15.8977 11.1855 15.4356 11.7101 14.8409 12.0851C14.25 12.4601 13.5606 12.6476 12.7727 12.6476ZM12.7727 11.443C13.3712 11.443 13.8636 11.2896 14.25 10.9828C14.6364 10.676 14.9223 10.2726 15.108 9.77258C15.2936 9.27258 15.3864 8.73091 15.3864 8.14758C15.3864 7.56424 15.2936 7.02068 15.108 6.5169C14.9223 6.01311 14.6364 5.60591 14.25 5.2953C13.8636 4.9847 13.3712 4.8294 12.7727 4.8294C12.1742 4.8294 11.6818 4.9847 11.2955 5.2953C10.9091 5.60591 10.6231 6.01311 10.4375 6.5169C10.2519 7.02068 10.1591 7.56424 10.1591 8.14758C10.1591 8.73091 10.2519 9.27258 10.4375 9.77258C10.6231 10.2726 10.9091 10.676 11.2955 10.9828C11.6818 11.2896 12.1742 11.443 12.7727 11.443ZM22.2969 15.9203C21.6491 15.9203 21.0923 15.837 20.6264 15.6703C20.1605 15.5074 19.7723 15.2915 19.4616 15.0226C19.1548 14.7574 18.9105 14.4733 18.7287 14.1703L19.7969 13.4203C19.9181 13.5794 20.0715 13.7612 20.2571 13.9658C20.4427 14.1741 20.6965 14.354 21.0185 14.5055C21.3442 14.6608 21.7704 14.7385 22.2969 14.7385C23.0014 14.7385 23.5829 14.568 24.0412 14.2271C24.4995 13.8862 24.7287 13.3521 24.7287 12.6249V10.8521H24.6151C24.5166 11.0112 24.3764 11.2082 24.1946 11.443C24.0166 11.6741 23.759 11.8805 23.4219 12.0624C23.0885 12.2404 22.6378 12.3294 22.0696 12.3294C21.3651 12.3294 20.7325 12.1627 20.1719 11.8294C19.6151 11.4961 19.1738 11.0112 18.848 10.3749C18.526 9.73849 18.3651 8.96576 18.3651 8.05667C18.3651 7.16273 18.5223 6.38432 18.8366 5.72144C19.151 5.05477 19.5885 4.53962 20.1491 4.17599C20.7098 3.80856 21.3575 3.62485 22.0923 3.62485C22.6605 3.62485 23.1113 3.71955 23.4446 3.90894C23.7817 4.09455 24.0393 4.30667 24.2173 4.5453C24.3991 4.78015 24.5393 4.97333 24.6378 5.12485H24.7741V3.73849H26.0696V12.7158C26.0696 13.4658 25.8991 14.0756 25.5582 14.5453C25.2211 15.0188 24.7666 15.3654 24.1946 15.5851C23.6264 15.8086 22.9938 15.9203 22.2969 15.9203ZM22.2514 11.1249C22.7893 11.1249 23.2438 11.0017 23.6151 10.7555C23.9863 10.5093 24.2685 10.1552 24.4616 9.69303C24.6548 9.23091 24.7514 8.67788 24.7514 8.03394C24.7514 7.40515 24.6567 6.85023 24.4673 6.36917C24.2779 5.88811 23.9976 5.51121 23.6264 5.23849C23.2552 4.96576 22.7969 4.8294 22.2514 4.8294C21.6832 4.8294 21.2098 4.97333 20.831 5.26121C20.456 5.54909 20.1738 5.93546 19.9844 6.4203C19.7988 6.90515 19.706 7.44303 19.706 8.03394C19.706 8.64 19.8007 9.17599 19.9901 9.6419C20.1832 10.104 20.4673 10.4677 20.8423 10.7328C21.2211 10.9942 21.6908 11.1249 22.2514 11.1249ZM34.6151 0.829395V12.4658H33.206V0.829395H34.6151ZM38.5994 7.21576V12.4658H37.2585V3.73849H38.554V5.10212H38.6676C38.8722 4.65894 39.1828 4.30288 39.5994 4.03394C40.0161 3.76121 40.554 3.62485 41.2131 3.62485C41.804 3.62485 42.321 3.74606 42.7642 3.98849C43.2074 4.22712 43.5521 4.59076 43.7983 5.0794C44.0445 5.56424 44.1676 6.17788 44.1676 6.9203V12.4658H42.8267V7.01121C42.8267 6.32561 42.6487 5.79152 42.2926 5.40894C41.9366 5.02258 41.4479 4.8294 40.8267 4.8294C40.3987 4.8294 40.0161 4.9222 39.679 5.1078C39.3456 5.29341 39.0824 5.56424 38.8892 5.9203C38.696 6.27636 38.5994 6.70818 38.5994 7.21576Z" fill="#CDCDCD"/>
</svg>
