<?xml version="1.0" encoding="UTF-8"?>
<svg width="1200pt" height="1200pt" version="1.1" viewBox="0 0 1200 1200" xmlns="http://www.w3.org/2000/svg">
 <path d="m1073.5 823.5-186 185.95v-659.45c0-13.398-7.1484-25.777-18.75-32.477-11.602-6.6992-25.898-6.6992-37.5 0-11.602 6.6992-18.75 19.078-18.75 32.477v659.45l-186-185.95c-9.5703-8.918-23.098-12.203-35.695-8.6719-12.598 3.5352-22.441 13.379-25.977 25.977-3.5312 12.598-0.24609 26.125 8.6719 35.695l250 250c7.0391 7.0117 16.566 10.945 26.5 10.945s19.461-3.9336 26.5-10.945l250-250c8.918-9.5703 12.203-23.098 8.6719-35.695-3.5352-12.598-13.379-22.441-25.977-25.977-12.598-3.5312-26.125-0.24609-35.695 8.6719z" fill="#293646"/>
 <path d="m600 387.5c9.9375-0.007812 19.469-3.9609 26.492-10.992 7.0273-7.0312 10.973-16.562 10.977-26.504 0-9.9375-3.9453-19.473-10.969-26.504l-250-250c-7.0391-7.0117-16.566-10.945-26.5-10.945s-19.461 3.9336-26.5 10.945l-250 250c-8.918 9.5703-12.203 23.098-8.6719 35.695 3.5352 12.598 13.379 22.441 25.977 25.977 12.598 3.5312 26.125 0.24609 35.695-8.6719l186-185.95v659.45c0 13.398 7.1484 25.777 18.75 32.477 11.602 6.6992 25.898 6.6992 37.5 0 11.602-6.6992 18.75-19.078 18.75-32.477v-659.45l186 185.95c7.0078 7.0625 16.551 11.023 26.5 11z" fill="#293646"/>
</svg>
